<?xml version="1.0" encoding="UTF-8"?>
<svg width="24px" height="24px" viewBox="0 0 24 24" version="1.1" xmlns="http://www.w3.org/2000/svg" xmlns:xlink="http://www.w3.org/1999/xlink">
    <title>ic_guide</title>
    <g id="ic_guide" stroke="none" stroke-width="1" fill="none" fill-rule="evenodd" fill-opacity="0.9">
        <path d="M14.9520387,2 C16.0785183,2 17.0974296,2.62599999 17.6113673,3.633 C17.826504,4.052 17.9400484,4.524 17.9400484,5 C17.9400484,5.41400001 17.6053913,5.75000001 17.193046,5.75000001 C16.7807006,5.75000001 16.4460435,5.41400001 16.4460435,5 C16.4460435,4.759 16.3912634,4.52900001 16.282699,4.317 C16.0247342,3.813 15.5147805,3.5 14.9520387,3.5 L5.98800967,3.5 C5.164315,3.5 4.49400484,4.173 4.49400484,5 L4.49400484,19.0010001 C4.49400484,19.827 5.164315,20.5 5.98800967,20.5 L14.9520387,20.5 C15.7757334,20.5 16.4460435,19.827 16.4460435,19 L16.4460435,14.8424001 L13.7888065,17.5117 C13.7260583,17.5747 13.6533501,17.6257 13.5726739,17.6627001 L9.42830442,19.5697 C9.32870409,19.6157001 9.22312775,19.6377 9.11755141,19.6377 C8.92233477,19.6377 8.73010615,19.5607 8.58668169,19.4147001 C8.36656497,19.1917 8.30879679,18.8537001 8.44126521,18.5687001 L9.69523328,15.8937 C9.87052985,15.5187 10.3137513,15.3567 10.6892445,15.5337 C11.0617497,15.7107 11.2221062,16.1577 11.0468096,16.5327 L10.6623524,17.3517 L12.8276634,16.3557 L19.0503928,10.1072 L17.8958258,8.94800002 L12.1224931,14.7467001 C11.8306642,15.0397 11.3575626,15.0397 11.0657338,14.7467001 C10.7739048,14.4537 10.7739048,13.9797 11.0657338,13.6867 L18.0556843,6.66770001 C18.9421273,5.7777 20.397288,5.7667 21.2976748,6.64170001 C21.7458763,7.07870001 21.9948771,7.66370001 21.9999535,8.28970001 C22.0038411,8.91570001 21.7638044,9.50470001 21.323571,9.94870001 L17.9400484,13.3436001 L17.9400484,19 C17.9400484,20.6540001 16.599428,22 14.9520387,22 L5.98800967,22 C4.34062034,22 3,20.6540001 3,19.0010001 L3,5 C3,3.34599999 4.34062034,2 5.98800967,2 L14.9520387,2 Z M10.9680258,9.75000001 C11.3803712,9.75000001 11.7150283,10.086 11.7150283,10.5 C11.7150283,10.914 11.3803712,11.25 10.9680258,11.25 L6.48601129,11.25 C6.07366596,11.25 5.73900887,10.914 5.73900887,10.5 C5.73900887,10.086 6.07366596,9.75000001 6.48601129,9.75000001 L10.9680258,9.75000001 Z M19.1124438,7.7287 L18.952386,7.88720001 L20.106953,9.04640002 L20.2668115,8.88770002 C20.422188,8.73170001 20.5078443,8.52270001 20.5058523,8.30170001 C20.5038602,8.07970001 20.416212,7.8727 20.2578475,7.71870001 C19.9391264,7.40970001 19.4251887,7.4137 19.1124438,7.7287 Z M14.454037,5.75000001 C14.8663824,5.75000001 15.2010395,6.08600001 15.2010395,6.50000001 C15.2010395,6.91400001 14.8663824,7.25000001 14.454037,7.25000001 L6.48601129,7.25000001 C6.07366596,7.25000001 5.73900887,6.91400001 5.73900887,6.50000001 C5.73900887,6.08600001 6.07366596,5.75000001 6.48601129,5.75000001 L14.454037,5.75000001 Z" id="形状结合" fill="#000000" fill-rule="nonzero"></path>
    </g>
</svg>