<?xml version="1.0" encoding="UTF-8"?>
<svg width="24px" height="24px" viewBox="0 0 24 24" version="1.1" xmlns="http://www.w3.org/2000/svg" xmlns:xlink="http://www.w3.org/1999/xlink">
    <title>ic_medals</title>
    <g id="ic_medals" stroke="none" stroke-width="1" fill="none" fill-rule="evenodd" fill-opacity="0.9">
        <path d="M17.8994261,2 L18.0441561,2.00508838 C19.0480527,2.07592566 19.8500786,2.87795144 19.9209158,3.88184814 L19.9260042,4.02657807 L19.9260042,7.36307062 L19.9200516,7.49048201 C19.8809933,7.90719216 19.6519882,8.28312499 19.3002073,8.5090494 L19.1784918,8.57865184 L18.6977388,8.8548482 L18.6124086,8.8963426 C18.2939031,9.02538847 17.9211135,8.90240547 17.7456784,8.59584947 C17.5702434,8.28929348 17.6530605,7.90557713 17.9256739,7.6963391 L18.0046772,7.64378915 L18.5171588,7.35050754 L18.5297897,7.34589953 L18.5306553,4.02657807 L18.5238113,3.93329965 C18.4832346,3.65935041 18.2666539,3.44276965 17.9927046,3.40219299 L17.8994261,3.39534884 L15.9060465,3.39534884 L15.9065367,7.9168585 C18.2932957,9.1632915 19.9260042,11.6629693 19.9260042,14.5369979 C19.9260042,18.6527145 16.5787188,22 12.4630021,22 C8.34728548,22 5,18.6527145 5,14.5369979 C5,12.5134838 5.80935477,10.6755404 7.1213986,9.32991552 L5.7240958,8.57019532 L5.60816383,8.50258016 C5.27247821,8.28274197 5.048414,7.91398197 5.00695802,7.50463488 L5,7.36683124 L5,4.02657807 L5.00508838,3.88184814 C5.07592566,2.87795144 5.87795144,2.07592566 6.88184814,2.00508838 L7.02657807,2 L17.8994261,2 Z M12.4630021,8.4693446 L12.2457637,8.4731836 C9.00106334,8.58802965 6.39534884,11.2650533 6.39534884,14.5369979 C6.39534884,17.8820847 9.11791537,20.6046512 12.4630021,20.6046512 C15.8080888,20.6046512 18.5306553,17.8820847 18.5306553,14.5369979 C18.5306553,11.2650533 15.9249409,8.58802965 12.6802406,8.4731836 L12.4630021,8.4693446 Z M13.2208197,11.0944366 L13.2850407,11.2014885 L13.9469767,12.4651163 L15.4482331,12.671457 C16.2809681,12.7852793 16.6527876,13.7617717 16.1070382,14.3763915 L16.0262681,14.4584141 L14.9665116,15.4288372 L15.2144376,16.7906408 C15.3656808,17.6167354 14.5318047,18.226062 13.7894951,17.9431367 L13.6932798,17.9011178 L12.3413954,17.2316279 L10.9905748,17.9013146 C10.2586443,18.2629153 9.38796927,17.7030761 9.45550342,16.8975596 L9.4697214,16.7911545 L9.7172093,15.4297674 L8.65736525,14.4578454 C8.02723812,13.8786357 8.33598488,12.8820587 9.12526932,12.6922499 L9.23583452,12.6714824 L10.735814,12.4651163 L11.3998793,11.2002194 C11.7753261,10.4877474 12.7829865,10.4521238 13.2208197,11.0944366 Z M12.3423256,12.4074419 L11.6380008,13.7508619 L10.1693023,13.9516279 L11.228829,14.9220197 L10.9665116,16.3553488 L12.3421264,15.6756935 L13.7162791,16.3553488 L13.4560975,14.9220169 L14.5144186,13.9516279 L13.0462519,13.7508619 L12.3423256,12.4074419 Z M9.01953488,3.39534884 L7.02657807,3.39534884 L6.93329965,3.40219299 C6.65935041,3.44276965 6.44276965,3.65935041 6.40219299,3.93329965 L6.39534884,4.02657807 L6.39577167,7.34604651 L8.26970295,8.36613807 C8.51026665,8.2021553 8.76087169,8.0518586 9.02038882,7.91637751 L9.01953488,3.39534884 Z M14.5767442,3.39534884 L10.3488372,3.39534884 L10.3490962,7.37876983 C10.9486188,7.20144588 11.5793693,7.09755277 12.2308872,7.07755381 L12.4630021,7.07399577 L12.695117,7.07755381 C13.3468194,7.09755844 13.9777427,7.20150474 14.5774175,7.37892054 L14.5767442,3.39534884 Z" id="形状" fill="#000000" fill-rule="nonzero"></path>
    </g>
</svg>