<?xml version="1.0" encoding="UTF-8"?>
<svg width="24px" height="24px" viewBox="0 0 24 24" version="1.1" xmlns="http://www.w3.org/2000/svg" xmlns:xlink="http://www.w3.org/1999/xlink">
    <title>ic_prepare</title>
    <g id="ic_prepare" stroke="none" stroke-width="1" fill="none" fill-rule="evenodd" fill-opacity="0.9">
        <path d="M16,12 C18.209139,12 20,13.790861 20,16 C20,16.8978585 19.7041772,17.7266239 19.2046813,18.3941466 L20.8713203,20.0606602 C21.1642136,20.3535534 21.1642136,20.8284271 20.8713203,21.1213203 C20.5784271,21.4142136 20.1035534,21.4142136 19.8106602,21.1213203 L18.0960913,19.4074751 C17.4865617,19.7832234 16.7685963,20 16,20 C13.790861,20 12,18.209139 12,16 C12,13.790861 13.790861,12 16,12 Z M11.0605469,12.25 C11.4747604,12.25 11.8105469,12.5857864 11.8105469,13 C11.8105469,13.4142136 11.4747604,13.75 11.0605469,13.75 L6.85714286,13.75 C5.70180548,13.75 4.75,14.7493958 4.75,16 C4.75,17.2506042 5.70180548,18.25 6.85714286,18.25 L11.0605469,18.25 C11.4747604,18.25 11.8105469,18.5857864 11.8105469,19 C11.8105469,19.4142136 11.4747604,19.75 11.0605469,19.75 L6.85714286,19.75 C4.85656738,19.75 3.25,18.0631042 3.25,16 C3.25,13.9368958 4.85656738,12.25 6.85714286,12.25 Z M16,13.5 C14.6192881,13.5 13.5,14.6192881 13.5,16 C13.5,17.3807119 14.6192881,18.5 16,18.5 C17.3807119,18.5 18.5,17.3807119 18.5,16 C18.5,14.6192881 17.3807119,13.5 16,13.5 Z M16.9124188,3.25 C19.1995588,3.25 21.0909903,4.90500252 21.0909903,7 C21.0909903,9.09499748 19.1995588,10.75 16.9124188,10.75 L4,10.75 C3.58578644,10.75 3.25,10.4142136 3.25,10 C3.25,9.58578644 3.58578644,9.25 4,9.25 L5.981,9.25 L6.07129533,9.17027369 C6.65900267,8.60964966 7,7.83334314 7,7 C7,6.12379753 6.62235335,5.31199375 5.98373977,4.74926734 L4,4.75 C3.58578644,4.75 3.25,4.41421356 3.25,4 C3.25,3.58578644 3.58578644,3.25 4,3.25 L16.9124188,3.25 Z M8.5,7 C8.5,7.80675233 8.28607207,8.57916238 7.8972428,9.25139217 L16.9124188,9.25 C18.4123743,9.25 19.5909903,8.21871102 19.5909903,7 C19.5909903,5.78128898 18.4123743,4.75 16.9124188,4.75 L7.89789064,4.74976878 C8.28551109,5.42059375 8.5,6.1924905 8.5,7 Z" id="形状结合" fill="#000000" fill-rule="nonzero"></path>
    </g>
</svg>