<?xml version="1.0" encoding="UTF-8"?>
<svg width="24px" height="24px" viewBox="0 0 24 24" version="1.1" xmlns="http://www.w3.org/2000/svg" xmlns:xlink="http://www.w3.org/1999/xlink">
    <title>ic_video</title>
    <g id="ic_video" stroke="none" stroke-width="1" fill="none" fill-rule="evenodd" fill-opacity="0.9">
        <path d="M12,2 C14.4106408,2 16.69047,2.85673135 18.4868122,4.38946176 C18.8019118,4.65832072 18.8393973,5.13171263 18.5705382,5.4468122 C18.3016793,5.76191177 17.8282874,5.79939719 17.5131879,5.53053825 C15.9858576,4.22734258 14.0503421,3.5 12,3.5 C7.30621357,3.5 3.5,7.30621357 3.5,12 C3.5,16.6937865 7.30621357,20.5 12,20.5 C16.6937865,20.5 20.5,16.6937865 20.5,12 C20.5,10.3477134 20.0278934,8.76633273 19.1531162,7.4055682 C18.929127,7.05714067 19.0300043,6.59310527 19.3784319,6.36911615 C19.7268593,6.14512702 20.1908948,6.24600428 20.4148839,6.59443181 C21.4439645,8.19522384 22,10.057735 22,12 C22,17.5222136 17.5222136,22 12,22 C6.47778644,22 2,17.5222136 2,12 C2,6.47778644 6.47778644,2 12,2 Z M8.60450001,9.15880001 C8.60450001,7.81144221 10.0624689,6.96965732 11.2294595,7.64325759 L11.2294595,7.64325759 L16.1474323,10.4822419 C17.3145226,11.1558997 17.3145226,12.8397004 16.1475586,13.5132852 L16.1475586,13.5132852 L11.2294324,16.3533581 C10.0624689,17.0269427 8.60450001,16.1851578 8.60450001,14.8378 L8.60450001,14.8378 L8.60450001,9.15880001 Z M10.4795677,8.94235812 C10.3125764,8.84596884 10.1045,8.96610551 10.1045,9.15880001 L10.1045,9.15880001 L10.1045,14.8378 C10.1045,15.0304945 10.3125764,15.1506312 10.4794414,15.0543148 L10.4794414,15.0543148 L15.3975677,12.2142419 C15.5644775,12.1178997 15.5644775,11.8777004 15.3975405,11.7813424 L15.3975405,11.7813424 L10.4795677,8.94235812 Z" id="形状结合" fill="#000000" fill-rule="nonzero"></path>
    </g>
</svg>