<?xml version="1.0" encoding="UTF-8"?>
<svg width="40px" height="40px" viewBox="0 0 40 40" version="1.1" xmlns="http://www.w3.org/2000/svg" xmlns:xlink="http://www.w3.org/1999/xlink">
    <title>ic_back</title>
    <defs>
        <path d="M16.7823403,12.1940138 L16.8152459,12.2242889 L23.9739788,18.758314 C24.6607833,19.4278133 24.6750917,20.50462 24.016904,21.1910905 L23.9739788,21.2343699 L16.8140514,27.7814026 C16.6817842,27.9103372 16.5133575,27.9825405 16.3405918,27.9980127 L16.2933902,28.0008258 L16.2461168,28.0008258 C16.0570714,27.9951996 15.8697472,27.9220585 15.7254556,27.7814026 C15.4355841,27.4988349 15.4252316,27.0469724 15.6943979,26.7523123 L15.7254556,26.7202357 L22.5225176,20.5269254 C22.8123891,20.2443577 22.8227416,19.7924952 22.5535753,19.4978351 L22.5225176,19.4657585 L15.7266501,13.2854558 C15.4260426,12.9924226 15.4260426,12.5173221 15.7266501,12.2242889 C15.8715858,12.0830051 16.0599392,12.0098403 16.2498433,12.0047944 L16.2973274,12.0047944 C16.4713765,12.0107338 16.6437969,12.0737544 16.7823403,12.1940138 Z" id="path-1"></path>
    </defs>
    <g id="ic_back" stroke="none" stroke-width="1" fill="none" fill-rule="evenodd">
        <circle id="椭圆形" fill-opacity="0.0509803922" fill="#000000" cx="20" cy="20" r="20"></circle>
        <mask id="mask-2" fill="white">
            <use xlink:href="#path-1" transform="translate(20.000021, 20.002810) scale(-1, 1) translate(-20.000021, -20.002810) "></use>
        </mask>
        <use id="路径" fill-opacity="0.9" fill="#000000" fill-rule="nonzero" transform="translate(20.000021, 20.002810) scale(-1, 1) translate(-20.000021, -20.002810) " xlink:href="#path-1"></use>
    </g>
</svg>